<svg xmlns="http://www.w3.org/2000/svg" viewBox="0 0 1110 299.78"><title>Asset 1firma Emanuel Morano Sole</title><g id="Layer_2" data-name="Layer 2"><g id="Layer_1-2" data-name="Layer 1"><path d="M244.19,156.76c0-15.3,0-30.6,0-45.91a18.8,18.8,0,0,1,.86-5.83c4.21-12.41,8.81-24.57,17.36-34.92,6.64-8,18.58-7.08,23.68,2.27,3.65,6.7,3.74,13.75,2.25,20.88-4,19.43-8.18,38.8-10.78,58.53-1.15,8.69-.2,17.18-.81,25.74a7.34,7.34,0,0,0,.51,2.13c.89-.28,2.06-.28,2.63-.86,5.47-5.67,10.94-11.36,16.2-17.24,1.54-1.72,2.89-4,5.28-2.69,1.28.72,1.91,3.13,2.24,4.89,1.15,6.24,2,12.53,3.06,18.78.5,2.93,2.28,5.23,5.28,5.4,3.22.18,6.86,2.6,9.68-1a38.36,38.36,0,0,0,4.7-6.6c3.63-7.41,10-9.21,17.33-8.49,13,1.28,26,3,39.06,4.51,8.37,1,16.36,0,23.41-5.06,4-2.82,7.76-5.88,11.62-8.85,7-5.36,15.34-6.36,23.73-7,2.46-.18,5,.1,7.44.07,4.36,0,7.35-1.85,9.16-6.11,2.87-6.74,3-6.51,9.7-4.08,2.23.81,4.82.63,7.25.87,4.64.46,9.3,1.4,13.91,1.22,7-.29,10.63,5.76,16.34,7.92,3.05,1.15,2.32,4.62-.1,6.77-5.68,5-7.53,12-9.66,18.82-1,3.06,0,3.77,3.31,2.94,8.5-2.12,11-5.08,11.61-13.7.77-11.15,9.43-17.55,20.2-15.07,6,1.39,12.29,2.07,16.5,7.4.92,1.15,2.39,2.23,2.61,3.51,1,5.6,5,8.12,9.43,10.6,2.76,1.54,4.92,4.12,7.65,5.74,3.69,2.2,5.44,1.3,6.14-2.91a28,28,0,0,0,0-5.86c-.2-4.42.85-8.25,4.69-10.94,4.09-2.88,7.49-.63,10.95,1.36,6.8,3.92,12.23,8.88,14.87,16.64,1.68,4.95,3.76,5.34,8.32,2.47a79.85,79.85,0,0,0,8.51-5.88c5.32-4.42,11.33-5.41,17.35-2.69a50.7,50.7,0,0,0,26.69,4.59c5.6-.61,9.89,2.66,14.85,3.88a92.51,92.51,0,0,0,10.81,2c.82.1,1.79-1.09,2.7-1.69-.73-.91-1.28-2.24-2.22-2.63-1.3-.54-2.9-.33-4.37-.49-5.14-.57-10.21-7.57-8.43-12.35a9.18,9.18,0,0,1,5-4.67c2.44-.89,5.37-.74,8.07-.58,15.51.93,30.48-1,44.74-7.56,4.67-2.14,9.61-3.67,14.4-5.54s5.61-3.69,3.34-8.49a43.79,43.79,0,0,0-3.82-6.31c-10.12-14.48-15.67-30.15-12.06-48,1.71-8.42,3.75-16.8,6.13-25.06,3.57-12.39,12.91-20.3,23.17-26.85,12.3-7.86,28.78-5.19,39.44,5.06C819.74,52.91,825.66,69,823.23,87.29a65.47,65.47,0,0,1-8.71,24.88c-7.45,12.17-17,23-29.21,31-1.85,1.22-3.94,2.08-5.75,3.36-3.46,2.46-3.65,5-.09,7.54a180.42,180.42,0,0,0,17.31,11.44c7.94,4.47,16.31,8.17,24.31,12.55,3.2,1.75,5.92,4.39,8.79,6.72s4.21,2,5-1.45c.11-.47,0-1,.11-1.47,2.12-13.06,8.78-18.17,21.63-15.78,5.28,1,10.4,3.14,15.43,5.17s8.54,6,10.77,10.78c1.17,2.51,2.31,3.54,5,2.7,10.88-3.43,21.46-7.58,30.79-14.26,3.78-2.7,4.52-6.85,3.65-11.32-1.51-7.71-3.07-15.41-4.42-23.15-1.94-11.16-3.84-22.34-2.33-33.75a17.54,17.54,0,0,1,.47-3.66c2.46-6.78,2.71-14,4.16-20.92,2.41-11.55,6.33-22.81,10-34.08,2.1-6.53,4.3-13.15,7.52-19.17A128.44,128.44,0,0,1,950.94,4.16c4.39-5.41,7.24-5.33,12.66-1,6.43,5.11,10.61,11.66,10.65,20.19.07,14.09.4,28.2-.09,42.28-.46,13.5-.26,27.32-3.16,40.38-4.19,18.85-8.2,38.22-21,53.93a54.86,54.86,0,0,1-6.5,6.87c-3,2.6-3.75,5.45-2.45,9.15,7,19.86,23,32.12,45,28,6.77-1.26,7.63-3.51,3.92-9.59a53.92,53.92,0,0,0-3.31-4.9,23.87,23.87,0,0,1-4.82-18.09,9.43,9.43,0,0,1,1.83-4.67,31.89,31.89,0,0,1,23.16-11.69,22.69,22.69,0,0,1,20.63,10.9c2.74,4.41,1.29,8.56-.75,12.59-2.42,4.77-5.19,9.36-7.53,14.17-1,2.13-.75,4.39,1.8,5.66,3.31,1.65,6.59,3.36,9.93,4.93,3.86,1.81,7.55,3.74,9.39,7.94,1.67,3.79,1.14,7.73-1.52,10.28a8.13,8.13,0,0,1-10.27.95c-4.83-3-9.52-6.18-14.1-9.53-5.25-3.83-10.06-4.64-16.07-.84-5.1,3.22-11.24,4.76-16.84,7.23-9.07,4-16.11-1.15-23.57-4.87-8.85-4.41-14-12.22-19.18-20.05-2.6-3.9-5.48-7.63-8-11.6-1.48-2.36-3-2.91-5.51-1.7-2.87,1.4-5.82,2.66-8.79,3.82-4.34,1.71-8.78,3.18-13.09,4.94-2.94,1.19-5.76,2.7-8.62,4.11-1.75.87-3.38,2.16-5.23,2.64-4.19,1.1-6,3.5-7.61,7.71-4.86,12.87-14.37,18.2-29.17,13.4-4.19-1.36-5.39-.55-6.59,3.23a40,40,0,0,1-4.52,9.22c-2.94,4.62-7.45,7.75-12.81,7.83-14.79.2-29.7,1.61-44.16-3.43-15.13-5.29-30.62-9.7-44.05-18.84a33.68,33.68,0,0,1-8.65-7.85c-4.26-6-.08-11.83,5.87-11a34,34,0,0,0,6.69,0c4-.28,6.49.51,7,5.31.49,5,5.25,7,9,9.16,8.32,4.92,17.4,8,26.71,10.68,10.86,3.09,21.85,3.25,33,3.23,5.67,0,9.32-2.47,11.6-7.44s-.46-8.11-3.33-11.76c-9.18-11.64-20.5-20.41-33.53-27.41-7.57-4.06-14.63-9.11-21.76-14-4-2.74-7.18-2.37-11.48.1a63.13,63.13,0,0,1-17.09,6.41c-8.82,2.05-17.85,3.19-26.81,4.64-3.8.62-6.33,1.74-7.71,6.22a22.87,22.87,0,0,1-28.29,15.07,96.93,96.93,0,0,0-28.52-3.44c-4.24.11-8.81-1.31-12.77-3.08-6.88-3.08-12.84-2.51-18.68,2.16-3.85,3.08-7.86,6-11.92,8.78s-7.14,2.18-9.64-2.08a38.15,38.15,0,0,1-1.7-4.11A35.34,35.34,0,0,0,596,190c-4.09-6.09-9.36-5.92-13,.45-1.09,1.9-1.51,4.18-2.47,6.18-2.46,5.15-6.28,6.34-11.39,3.83s-8.72-6.29-12.09-10.65c-4.48-5.8-7.47-5.61-11.68.38-5,7.07-17.58,10.3-25.4,5.5-5.48-3.37-9.91-3.21-15,0-2.48,1.58-5.41,2.44-8.08,3.74-3.71,1.82-7.2,1.19-10.63-.7-5.72-3.16-7-6.86-4.43-12.93,2.13-5,4.48-9.88,6.64-14.85,2.37-5.43,1.2-8-4.33-9.71a42.05,42.05,0,0,0-4.37-.8c-3.86-.74-7.7-1.66-11.59-2.16-1.19-.15-2.53.83-3.8,1.29.51,1.3.7,2.93,1.62,3.81,1.18,1.14,3,1.63,4.44,2.5,7.19,4.24,7.78,10.72.87,15.22-8.05,5.25-16.2,11.13-26.22,11.38-9.25.24-18.79,1.74-27.67-2.7a8.93,8.93,0,0,0-3.56-.91c-10.61-.42-21.26-.42-31.85-1.22-9.11-.68-18.17-2.19-27.24-3.46-3.89-.55-7.74-1.42-11.61-2.13s-6.84.8-9,4.77c-2.6,4.87-5.6,9.24-10.55,12.08a14.36,14.36,0,0,1-20.24-5.58c-1.78-3.25-3.59-6.5-5.15-9.85s-4.05-3.34-6.51-1.41c-4.65,3.67-9.12,7.55-13.59,11.44s-5.77,3.74-9.34-1c-4.45-5.87-4.7-12.74-3.44-19.17,3.74-19,5.23-38.35,10.74-57.06,2.54-8.6,2.65-17.94,3.64-27,.46-4.24-1.77-7.69-4.55-10.58s-4.72-2.48-7.2.67c-5,6.34-6.76,14.12-9.3,21.52a88.78,88.78,0,0,0-4.44,33.46c1.17,23.69,1.29,47.46,3.19,71.09.92,11.41,4.8,22.59,7.5,33.84,1.38,5.75,2.88,11.5,4.73,17.11,3.27,10,9.65,18.23,15.43,26.8a5.1,5.1,0,0,0,2.44,1.57c1.1.41,2.69,1.08,3.38.61s.89-2.21.78-3.34c-.27-2.67-1-5.29-1.25-8s.54-5.56,3.43-5.59c1.53,0,3.93,2.41,4.46,4.18A122.58,122.58,0,0,1,301.5,288a12.19,12.19,0,0,1-.53,4.39c-1.51,7.13-6.48,9.22-12.9,5.91-8.53-4.4-14.18-11.37-18.36-19.64-7.94-15.7-14.65-31.91-19-49-2.87-11.26-5-22.61-5.22-34.34-.23-12.84-1.22-25.67-1.89-38.51Zm538-112.34c-2.6.66-5.44.85-7.75,2.06-7.5,3.94-13.54,9.67-18.66,16.37C750.5,69.71,750,78,749.48,86c-1.08,16.5,5.15,31.38,11,46.3a7.34,7.34,0,0,0,2.51,3.6c1.46.89,4.09,1.94,5,1.27,8.79-6.29,18.38-12,25.62-19.77,6.36-6.87,10.15-16.18,14.75-24.59a11.38,11.38,0,0,0,1.27-7.11c-1.68-8.44-3-17.14-6.13-25.07C799.92,51.57,793.25,44.91,782.14,44.42ZM959.62,57c0-6.67,0-13.34,0-20,0-3.44.07-6.91-.24-10.33-.13-1.33-1.25-2.57-1.91-3.85a16.8,16.8,0,0,0-3.15,2.53,20.89,20.89,0,0,0-3.54,5.58c-3.13,8.78-6.52,17.51-8.86,26.51-4.32,16.67-8.19,33.47-11.78,50.32-1,4.71-.51,9.76-.51,14.65,0,3.91.59,7.84.39,11.74-.31,5.8.3,11.28,3.58,16.25,2.21,3.35,3.09,3.58,5.31.63a72.53,72.53,0,0,0,6.86-10.47c5.15-10.16,8.19-20.86,10.15-32.21,2.15-12.4,3.82-24.7,3.71-37.26C959.58,66.41,959.62,61.71,959.62,57ZM536.78,176.29a18.09,18.09,0,0,0-.25-3.79c-1-4.13-6.12-6.87-9-4.72-2.11,1.56-4.51,3.36-3.62,6.65.82,3,.94,6.41,4.52,8C533.35,184.54,537,182.21,536.78,176.29ZM1000,178.71c0,2.35,4.15,6.3,6.89,6.48,3.5.24,7.51-4.78,7.46-9.32,0-3.47-2-5.72-5.18-5.86C1004.73,169.82,1000.1,174.21,1000,178.71Zm-566.18,5.06c7.34-.25,12.88-2,17.64-5.79.64-.52.86-1.57,1.28-2.37a8.78,8.78,0,0,0-2.45-1.15,6.43,6.43,0,0,0-3.64.23c-6.49,3.59-13.14,3.32-20.07,1.59-1.06-.27-2.62,1.47-3.94,2.29.78,1.11,1.34,2.9,2.38,3.23A81.93,81.93,0,0,0,433.83,183.77Zm421.74-4.14c-2.75-.15-5.06.18-5.69,3.38-.48,2.45,1.69,5.05,5,5.05a22.2,22.2,0,0,0,8.47-1.84c2.74-1.15,2.69-3.62,0-4.75C860.9,180.47,858.17,180.21,855.57,179.63ZM442,164.23l-.11-.42c-2.81.69-5.66,1.23-8.39,2.16-.85.29-1.35,1.64-2,2.5,1,.53,2,1.59,2.93,1.5a46.55,46.55,0,0,0,8.52-1.6c1.46-.42,2.71-1.6,4.06-2.44-1.43-.57-2.85-1.14-4.28-1.68A2.15,2.15,0,0,0,442,164.23Zm418.5,40.3a4,4,0,0,0-1.13,0c-1.92.3-3.83.66-5.74,1a48.35,48.35,0,0,0,5.5,3,5,5,0,0,0,3.62.07,36.58,36.58,0,0,0,5-3.45c-1.57-.2-3.15-.42-4.73-.58C862.32,204.47,861.58,204.53,860.49,204.53Z"/><path d="M78.31,204.06c-6,0-11.91.2-17.85-.07-4.79-.21-7.34,2.81-9.42,6.13a7.34,7.34,0,0,0,4.11,10.93c12,3.61,24.13,6.83,36.37,9.46,3,.65,6.61-1.52,9.93-2.43,1.42-.39,2.84-1.28,4.21-1.19a5.67,5.67,0,0,1,3.62,1.93c.44.54-.09,2.34-.71,3.18a20.81,20.81,0,0,1-16.25,8.89c-5.62.23-11.3-.78-16.94-1.38a68.28,68.28,0,0,1-21.3-5.87A27.16,27.16,0,0,1,39.69,218.4c-1.07-2.72-.46-6.29,0-9.36,1.1-6.77,1.22-6.65-5.39-9.53a43.16,43.16,0,0,1-7.67-4.38c-8.85-6.3-11-15.87-11.73-25.79-.18-2.43,1.38-5.29,2.86-7.46,5.4-7.93,11.09-15.66,16.69-23.44.58-.8,1.43-1.4,2-2.21,2.21-3.28,1.26-5.69-2.74-6.23-5.36-.73-10.81-.81-16.14-1.67a76.32,76.32,0,0,1-13.48-3.42c-2.87-1-4.64-3.25-3.94-7s1.83-7.2,5.79-8.76c3.35-1.32,7.06-.83,8.79,1.93,5.85,9.3,14.6,8.89,23.68,8.06,8.56-.79,17.31-.7,25.62-2.58,8.09-1.82,15.63-5.94,23.58-8.54,14.81-4.83,29.61-9.75,44.66-13.72a107.26,107.26,0,0,1,25.59-3.42c6.48-.09,12.52,2.66,15.27,9.76,1.08,2.78.92,5.17-1.38,6.56-3.94,2.38-8.05,5.18-12.44,6-26.94,5.3-54,10.1-81,15.06a9.27,9.27,0,0,1-2.21.26c-13.53-.87-23.59,6.28-32.43,15a90.53,90.53,0,0,0-14.75,19.2c-5.39,9.39-3.39,17.65,4.89,23.18a51.54,51.54,0,0,0,5.66,3.49c6.63,3.27,12.67,4,18.66-2.11,6.64-6.81,15.36-10.85,24.11-14.29a55.2,55.2,0,0,1,15.13-3.17A16.14,16.14,0,0,1,114.56,183c1.38,8.27-4.1,18.09-11.86,19.8-5.25,1.15-10.8,1-16.22,1.28-2.72.15-5.45,0-8.17,0Zm-2.13-10,.06.32c5.08-.73,10.25-1.07,15.19-2.32a38.48,38.48,0,0,0,9.95-4.64c1.23-.73,2.83-2.89.38-4.09-5.36-2.62-11.12-4.65-17-2.11a104.32,104.32,0,0,0-13.44,7.53c-1.33.81-2.13,2.46-3.17,3.73,1.68.53,3.34,1.15,5.06,1.54A13.18,13.18,0,0,0,76.18,194Z"/><path d="M1040.12,160.44c-2.65-1.11-5.32-1.75-7.35-3.25-1.37-1-2.76-3.46-2.43-4.87.29-1.21,2.92-2.47,4.63-2.65,3.88-.42,6.1-2.76,8.29-5.52,8.13-10.22,16.27-20.45,24.55-30.55,2.45-3,5.43-5.56,8.1-8.39,3.55-3.75,6.88-7.72,10.6-11.29a88.61,88.61,0,0,1,10.23-8.41c3.55-2.51,7.16-1.3,10.28,1.09,3.74,2.85,4,6.49.54,9.94-5.24,5.21-11,9.95-16,15.29-7,7.3-14,14.56-20,22.61-6.56,8.8-13.7,16.75-23,22.54C1046,158.47,1043.13,159.21,1040.12,160.44Z"/><path d="M160.2,245.42c-3.08-.09-6.72-4-6.51-6.92.26-3.49,4.69-7.19,8.4-7s7.34,3.85,7.32,7.16C169.39,242.34,165,245.56,160.2,245.42Z"/></g></g></svg>